<svg width="89" height="89" viewBox="0 0 89 89" fill="none" xmlns="http://www.w3.org/2000/svg">
<circle cx="44.5" cy="44.5" r="44.5" fill="white"/>
<path fill-rule="evenodd" clip-rule="evenodd" d="M60.6819 32.3635C60.6819 36.6551 58.977 40.7711 55.9423 43.8057C52.9076 46.8404 48.7917 48.5453 44.5001 48.5453C40.2084 48.5453 36.0925 46.8404 33.0578 43.8057C30.0231 40.7711 28.3182 36.6551 28.3182 32.3635C28.3182 28.0718 30.0231 23.9559 33.0578 20.9212C36.0925 17.8865 40.2084 16.1816 44.5001 16.1816C48.7917 16.1816 52.9076 17.8865 55.9423 20.9212C58.977 23.9559 60.6819 28.0718 60.6819 32.3635ZM52.591 32.3635C52.591 34.5093 51.7385 36.5673 50.2212 38.0846C48.7039 39.6019 46.6459 40.4544 44.5001 40.4544C42.3542 40.4544 40.2963 39.6019 38.7789 38.0846C37.2616 36.5673 36.4091 34.5093 36.4091 32.3635C36.4091 30.2176 37.2616 28.1597 38.7789 26.6423C40.2963 25.125 42.3542 24.2725 44.5001 24.2725C46.6459 24.2725 48.7039 25.125 50.2212 26.6423C51.7385 28.1597 52.591 30.2176 52.591 32.3635Z" fill="#011627"/>
<path fill-rule="evenodd" clip-rule="evenodd" d="M44.5 0C19.9239 0 0 19.9239 0 44.5C0 69.0761 19.9239 89 44.5 89C69.0761 89 89 69.0761 89 44.5C89 19.9239 69.0761 0 44.5 0ZM8.09091 44.5C8.09091 52.955 10.9753 60.7385 15.8096 66.9199C19.2056 62.4623 23.5856 58.8498 28.608 56.3642C33.6304 53.8786 39.1592 52.5873 44.763 52.5909C50.2946 52.5845 55.7547 53.8413 60.7268 56.2657C65.699 58.6901 70.0518 62.2179 73.4533 66.5801C76.9585 61.9828 79.3186 56.617 80.3383 50.9266C81.3579 45.2361 81.0079 39.3847 79.3172 33.8563C77.6264 28.328 74.6436 23.2818 70.6154 19.1352C66.5872 14.9885 61.6295 11.8607 56.1525 10.0105C50.6754 8.16032 44.8366 7.64094 39.119 8.49535C33.4014 9.34975 27.9694 11.5534 23.2726 14.9239C18.5757 18.2944 14.749 22.7349 12.109 27.878C9.46898 33.0211 8.09164 38.7189 8.09091 44.5ZM44.5 80.9091C36.1417 80.9226 28.0356 78.0472 21.5542 72.7696C24.1627 69.0341 27.6353 65.9842 31.6762 63.8796C35.7171 61.7749 40.2068 60.6779 44.763 60.6818C49.2622 60.6779 53.6975 61.7476 57.7003 63.8021C61.703 65.8566 65.1578 68.8366 67.7775 72.4945C61.246 77.9438 53.0061 80.9224 44.5 80.9091Z" fill="#011627"/>
</svg>
